<svg width="134" height="28" viewBox="0 0 134 28" fill="none" xmlns="http://www.w3.org/2000/svg">
<path d="M15 8V20C15 20.5933 15.1759 21.1734 15.5056 21.6667C15.8352 22.1601 16.3038 22.5446 16.852 22.7716C17.4001 22.9987 18.0033 23.0581 18.5853 22.9424C19.1672 22.8266 19.7018 22.5409 20.1213 22.1213C20.5409 21.7018 20.8266 21.1672 20.9424 20.5853C21.0581 20.0033 20.9987 19.4001 20.7716 18.852C20.5446 18.3038 20.1601 17.8352 19.6667 17.5056C19.1734 17.1759 18.5933 17 18 17H6C5.40666 17 4.82664 17.1759 4.33329 17.5056C3.83994 17.8352 3.45543 18.3038 3.22836 18.852C3.0013 19.4001 2.94189 20.0033 3.05765 20.5853C3.1734 21.1672 3.45912 21.7018 3.87868 22.1213C4.29824 22.5409 4.83279 22.8266 5.41473 22.9424C5.99667 23.0581 6.59987 22.9987 7.14805 22.7716C7.69623 22.5446 8.16477 22.1601 8.49441 21.6667C8.82405 21.1734 9 20.5933 9 20V8C9 7.40666 8.82405 6.82664 8.49441 6.33329C8.16477 5.83994 7.69623 5.45543 7.14805 5.22836C6.59987 5.0013 5.99667 4.94189 5.41473 5.05765C4.83279 5.1734 4.29824 5.45912 3.87868 5.87868C3.45912 6.29824 3.1734 6.83279 3.05765 7.41473C2.94189 7.99667 3.0013 8.59987 3.22836 9.14805C3.45543 9.69623 3.83994 10.1648 4.33329 10.4944C4.82664 10.8241 5.40666 11 6 11H18C18.5933 11 19.1734 10.8241 19.6667 10.4944C20.1601 10.1648 20.5446 9.69623 20.7716 9.14805C20.9987 8.59987 21.0581 7.99667 20.9424 7.41473C20.8266 6.83279 20.5409 6.29824 20.1213 5.87868C19.7018 5.45912 19.1672 5.1734 18.5853 5.05765C18.0033 4.94189 17.4001 5.0013 16.852 5.22836C16.3038 5.45543 15.8352 5.83994 15.5056 6.33329C15.1759 6.82664 15 7.40666 15 8Z" stroke="#020617" stroke-width="2"/>
<path d="M44.233 13.7273C44.233 15.2803 43.9489 16.6155 43.3807 17.733C42.8125 18.8456 42.0336 19.7027 41.044 20.304C40.0592 20.9006 38.9394 21.1989 37.6847 21.1989C36.4252 21.1989 35.3007 20.9006 34.3111 20.304C33.3262 19.7027 32.5497 18.8433 31.9815 17.7259C31.4134 16.6084 31.1293 15.2756 31.1293 13.7273C31.1293 12.1742 31.4134 10.8414 31.9815 9.72869C32.5497 8.61127 33.3262 7.75426 34.3111 7.15767C35.3007 6.55634 36.4252 6.25568 37.6847 6.25568C38.9394 6.25568 40.0592 6.55634 41.044 7.15767C42.0336 7.75426 42.8125 8.61127 43.3807 9.72869C43.9489 10.8414 44.233 12.1742 44.233 13.7273ZM42.0597 13.7273C42.0597 12.5436 41.8679 11.5469 41.4844 10.7372C41.1056 9.92282 40.5848 9.30729 39.9219 8.89062C39.2637 8.46922 38.518 8.25852 37.6847 8.25852C36.8466 8.25852 36.0985 8.46922 35.4403 8.89062C34.7822 9.30729 34.2614 9.92282 33.8778 10.7372C33.4991 11.5469 33.3097 12.5436 33.3097 13.7273C33.3097 14.911 33.4991 15.91 33.8778 16.7244C34.2614 17.5341 34.7822 18.1496 35.4403 18.571C36.0985 18.9877 36.8466 19.196 37.6847 19.196C38.518 19.196 39.2637 18.9877 39.9219 18.571C40.5848 18.1496 41.1056 17.5341 41.4844 16.7244C41.8679 15.91 42.0597 14.911 42.0597 13.7273ZM46.7987 25.0909V10.0909H48.8725V11.8594H49.0501C49.1732 11.6321 49.3507 11.3693 49.5827 11.071C49.8147 10.7727 50.1367 10.5123 50.5487 10.2898C50.9606 10.0625 51.5051 9.94886 52.1822 9.94886C53.0629 9.94886 53.8488 10.1714 54.5401 10.6165C55.2314 11.0616 55.7736 11.7031 56.1665 12.5412C56.5643 13.3793 56.7631 14.3878 56.7631 15.5668C56.7631 16.7457 56.5666 17.7566 56.1737 18.5994C55.7807 19.4375 55.2409 20.0838 54.5543 20.5384C53.8678 20.9882 53.0842 21.2131 52.2035 21.2131C51.5406 21.2131 50.9985 21.1018 50.5771 20.8793C50.1604 20.6567 49.8337 20.3963 49.5969 20.098C49.3602 19.7997 49.1779 19.5346 49.0501 19.3026H48.9222V25.0909H46.7987ZM48.8796 15.5455C48.8796 16.3125 48.9909 16.9848 49.2134 17.5625C49.436 18.1402 49.7579 18.5923 50.1793 18.919C50.6007 19.241 51.1168 19.402 51.7276 19.402C52.3621 19.402 52.8924 19.2339 53.3185 18.8977C53.7447 18.5568 54.0666 18.0952 54.2844 17.5128C54.507 16.9304 54.6183 16.2746 54.6183 15.5455C54.6183 14.8258 54.5094 14.1795 54.2915 13.6065C54.0785 13.0336 53.7565 12.5814 53.3256 12.25C52.8995 11.9186 52.3668 11.7528 51.7276 11.7528C51.1121 11.7528 50.5913 11.9115 50.1651 12.2287C49.7437 12.5459 49.4241 12.9886 49.2063 13.5568C48.9885 14.125 48.8796 14.7879 48.8796 15.5455ZM67.3171 12.7543L65.3924 13.0952C65.3119 12.849 65.1841 12.6146 65.0089 12.392C64.8384 12.1695 64.6064 11.9872 64.3129 11.8452C64.0193 11.7031 63.6523 11.6321 63.212 11.6321C62.6107 11.6321 62.1088 11.767 61.7063 12.0369C61.3039 12.3021 61.1026 12.6454 61.1026 13.0668C61.1026 13.4313 61.2376 13.7249 61.5075 13.9474C61.7773 14.17 62.2129 14.3523 62.8143 14.4943L64.5472 14.892C65.551 15.1241 66.2991 15.4815 66.7915 15.9645C67.284 16.4474 67.5302 17.0748 67.5302 17.8466C67.5302 18.5 67.3408 19.0824 66.962 19.5938C66.588 20.1004 66.0647 20.4981 65.3924 20.7869C64.7248 21.0758 63.9506 21.2202 63.07 21.2202C61.8484 21.2202 60.8517 20.9598 60.0799 20.4389C59.3081 19.9134 58.8346 19.1676 58.6594 18.2017L60.712 17.8892C60.8398 18.4242 61.1026 18.8291 61.5004 19.1037C61.8981 19.3736 62.4165 19.5085 63.0558 19.5085C63.7518 19.5085 64.3081 19.3641 64.7248 19.0753C65.1415 18.7817 65.3498 18.4242 65.3498 18.0028C65.3498 17.6619 65.2219 17.3755 64.9663 17.1435C64.7153 16.9115 64.3294 16.7363 63.8086 16.6179L61.962 16.2131C60.944 15.9811 60.1912 15.6117 59.7035 15.1051C59.2205 14.5985 58.979 13.9569 58.979 13.1804C58.979 12.5365 59.159 11.973 59.5188 11.4901C59.8787 11.0071 60.3758 10.6307 61.0103 10.3608C61.6448 10.0862 62.3716 9.94886 63.1907 9.94886C64.3697 9.94886 65.2977 10.2045 65.9748 10.7159C66.6519 11.2225 67.0993 11.902 67.3171 12.7543ZM69.5312 18.1591V16.3835L75.8168 6.45455H77.2159V9.06818H76.3281L71.8324 16.1847V16.2983H80.4474V18.1591H69.5312ZM76.4276 21V17.6193L76.4418 16.8097V6.45455H78.5227V21H76.4276ZM82.4041 8.34375V6.45455H93.6612V8.34375H89.1229V21H86.9354V8.34375H82.4041ZM99.098 21.2202C98.0232 21.2202 97.0975 20.9905 96.321 20.5312C95.5492 20.0672 94.9527 19.4162 94.5312 18.5781C94.1146 17.7353 93.9062 16.7481 93.9062 15.6165C93.9062 14.4991 94.1146 13.5142 94.5312 12.6619C94.9527 11.8097 95.5398 11.1444 96.2926 10.6662C97.0502 10.188 97.9356 9.94886 98.9489 9.94886C99.5644 9.94886 100.161 10.0507 100.739 10.2543C101.316 10.4579 101.835 10.7775 102.294 11.2131C102.753 11.6487 103.116 12.2145 103.381 12.9105C103.646 13.6018 103.778 14.4422 103.778 15.4318V16.1847H95.1065V14.5938H101.697C101.697 14.035 101.584 13.5402 101.357 13.1094C101.129 12.6738 100.81 12.3305 100.398 12.0795C99.9905 11.8286 99.5123 11.7031 98.9631 11.7031C98.3665 11.7031 97.8456 11.8499 97.4006 12.1435C96.9602 12.4323 96.6193 12.8111 96.3778 13.2798C96.1411 13.7438 96.0227 14.2481 96.0227 14.7926V16.0355C96.0227 16.7647 96.1506 17.3849 96.4062 17.8963C96.6667 18.4077 97.0289 18.7983 97.4929 19.0682C97.9569 19.3333 98.4991 19.4659 99.1193 19.4659C99.5218 19.4659 99.8887 19.4091 100.22 19.2955C100.552 19.1771 100.838 19.0019 101.08 18.7699C101.321 18.5379 101.506 18.2514 101.634 17.9105L103.643 18.2727C103.482 18.8646 103.194 19.383 102.777 19.8281C102.365 20.2685 101.847 20.6117 101.222 20.858C100.601 21.0994 99.8935 21.2202 99.098 21.2202ZM109.309 21.2415C108.618 21.2415 107.993 21.1136 107.434 20.858C106.876 20.5975 106.433 20.2211 106.106 19.7287C105.784 19.2363 105.623 18.6326 105.623 17.9176C105.623 17.3021 105.742 16.7955 105.978 16.3977C106.215 16 106.535 15.6851 106.937 15.4531C107.34 15.2211 107.789 15.0459 108.287 14.9276C108.784 14.8092 109.29 14.7192 109.806 14.6577C110.46 14.5819 110.99 14.5204 111.397 14.473C111.805 14.4209 112.1 14.3381 112.285 14.2244C112.47 14.1108 112.562 13.9261 112.562 13.6705V13.6207C112.562 13.0005 112.387 12.5199 112.037 12.179C111.691 11.8381 111.175 11.6676 110.488 11.6676C109.773 11.6676 109.21 11.8262 108.798 12.1435C108.391 12.456 108.109 12.804 107.953 13.1875L105.957 12.733C106.194 12.0701 106.539 11.535 106.994 11.1278C107.453 10.7159 107.981 10.4176 108.578 10.233C109.174 10.0436 109.802 9.94886 110.46 9.94886C110.895 9.94886 111.357 10.0009 111.845 10.1051C112.337 10.2045 112.797 10.3892 113.223 10.6591C113.654 10.929 114.006 11.3149 114.281 11.8168C114.556 12.3139 114.693 12.9602 114.693 13.7557V21H112.619V19.5085H112.534C112.396 19.7831 112.19 20.053 111.916 20.3182C111.641 20.5833 111.288 20.8035 110.858 20.9787C110.427 21.1539 109.911 21.2415 109.309 21.2415ZM109.771 19.5369C110.358 19.5369 110.86 19.4209 111.277 19.1889C111.698 18.9569 112.018 18.6539 112.235 18.2798C112.458 17.901 112.569 17.4962 112.569 17.0653V15.6591C112.493 15.7348 112.347 15.8059 112.129 15.8722C111.916 15.9337 111.672 15.9882 111.397 16.0355C111.123 16.0781 110.855 16.1184 110.595 16.1562C110.334 16.1894 110.117 16.2178 109.941 16.2415C109.529 16.2936 109.153 16.3812 108.812 16.5043C108.476 16.6274 108.206 16.8049 108.002 17.0369C107.804 17.2642 107.704 17.5672 107.704 17.946C107.704 18.4716 107.898 18.8693 108.287 19.1392C108.675 19.4044 109.17 19.5369 109.771 19.5369ZM117.521 21V10.0909H119.56V11.8665H119.695C119.922 11.2652 120.294 10.7964 120.81 10.4602C121.326 10.1193 121.944 9.94886 122.663 9.94886C123.393 9.94886 124.003 10.1193 124.496 10.4602C124.993 10.8011 125.36 11.2699 125.597 11.8665H125.71C125.971 11.2841 126.385 10.8201 126.953 10.4744C127.521 10.1241 128.198 9.94886 128.984 9.94886C129.974 9.94886 130.781 10.259 131.406 10.8793C132.036 11.4995 132.351 12.4347 132.351 13.6847V21H130.227V13.8835C130.227 13.1449 130.026 12.6098 129.624 12.2784C129.221 11.947 128.741 11.7812 128.182 11.7812C127.491 11.7812 126.953 11.9943 126.57 12.4205C126.186 12.8419 125.994 13.384 125.994 14.0469V21H123.878V13.7486C123.878 13.1567 123.693 12.6809 123.324 12.321C122.955 11.9612 122.474 11.7812 121.882 11.7812C121.48 11.7812 121.108 11.8878 120.767 12.1009C120.431 12.3092 120.159 12.6004 119.95 12.9744C119.747 13.3485 119.645 13.7817 119.645 14.2741V21H117.521Z" fill="#020617"/>
</svg>
