<svg width="36" height="36" viewBox="0 0 36 36" fill="none" xmlns="http://www.w3.org/2000/svg">
<path d="M0 18C0 8.05887 8.05887 0 18 0C27.9411 0 36 8.05887 36 18C36 27.9411 27.9411 36 18 36C8.05887 36 0 27.9411 0 18Z" fill="white"/>
<path fill-rule="evenodd" clip-rule="evenodd" d="M21.9521 7.19922C22.1405 8.47919 21.6195 9.73314 20.9323 10.6203C20.197 11.5719 18.9296 12.3079 17.7016 12.2695C17.4775 11.0441 18.0514 9.78146 18.7498 8.93269C19.5159 7.99595 20.8288 7.27728 21.9521 7.19922ZM25.639 25.2162C26.2721 24.246 26.5086 23.7566 27 22.6613C23.4257 21.302 22.853 16.2205 26.3903 14.2702C25.3114 12.9171 23.7952 12.1328 22.364 12.1328C21.3328 12.1328 20.6262 12.4019 19.9839 12.6466C19.4486 12.8505 18.9579 13.0373 18.3611 13.0373C17.7162 13.0373 17.1451 12.8326 16.5471 12.6182C15.89 12.3825 15.2004 12.1353 14.3447 12.1353C12.7386 12.1353 11.029 13.1166 9.94518 14.7944C8.42162 17.1573 8.6815 21.5994 11.1522 25.3835C12.0353 26.7378 13.2152 28.2594 14.7585 28.2731C15.3989 28.2794 15.825 28.0883 16.2861 27.8815C16.8139 27.6447 17.3876 27.3874 18.3808 27.3822C19.3799 27.3762 19.9446 27.6366 20.4653 27.8768C20.9146 28.084 21.3313 28.2762 21.9662 28.2693C23.5107 28.2569 24.7559 26.5706 25.639 25.2162Z" fill="#0B0B0A"/>
</svg>
